<svg height="512pt" viewBox="-77 0 512 512" width="512pt" xmlns="http://www.w3.org/2000/svg"><path d="m351.175781 0h-266.871093c-1.992188 0-3.898438.789062-5.304688 2.195312l-23.652344 58.089844-53.152344 18.710938c-1.40625 1.40625-2.195312 3.316406-2.195312 5.304687v420.199219c0 4.140625 3.359375 7.5 7.5 7.5h343.675781c4.140625 0 7.5-3.359375 7.5-7.5v-497c0-4.140625-3.359375-7.5-7.5-7.5zm0 0" fill="#f45a3c"/><path d="m351.175781 0h-23c4.140625 0 7.5 3.359375 7.5 7.5v497c0 4.140625-3.359375 7.5-7.5 7.5h23c4.140625 0 7.5-3.359375 7.5-7.5v-497c0-4.140625-3.359375-7.5-7.5-7.5zm0 0" fill="#eb4c36"/><g fill="#b03929"><path d="m83.449219.0546875c-1.675781.1914065-3.246094.9375005-4.449219 2.1406245l-76.804688 76.800782c-1.253906 1.257812-2.011718 2.910156-2.164062 4.667968h83.417969zm0 0"/><path d="m179.339844 224.5c-71.960938 0-130.5 58.542969-130.5 130.5 0 4.140625 3.355468 7.5 7.5 7.5 4.140625 0 7.5-3.359375 7.5-7.5 0-63.6875 51.8125-115.5 115.5-115.5 63.683594 0 115.5 51.8125 115.5 115.5 0 4.140625 3.355468 7.5 7.5 7.5 4.140625 0 7.5-3.359375 7.5-7.5 0-71.957031-58.542969-130.5-130.5-130.5zm0 0"/><path d="m62.035156 198.804688c1.464844 1.460937 3.382813 2.195312 5.304688 2.195312 1.917968 0 3.835937-.730469 5.300781-2.195312l12.949219-12.949219 12.945312 12.949219c1.464844 1.460937 3.382813 2.195312 5.304688 2.195312 1.917968 0 3.835937-.730469 5.300781-2.195312 2.929687-2.929688 2.929687-7.679688 0-10.609376l-12.945313-12.945312 12.945313-12.945312c2.929687-2.929688 2.929687-7.679688 0-10.609376-2.929687-2.925781-7.675781-2.925781-10.605469 0l-12.945312 12.949219-12.945313-12.949219c-2.929687-2.925781-7.679687-2.925781-10.609375 0-2.929687 2.929688-2.929687 7.679688 0 10.609376l12.949219 12.945312-12.949219 12.945312c-2.929687 2.929688-2.929687 7.679688 0 10.609376zm0 0"/><path d="m256.035156 198.804688c1.464844 1.460937 3.382813 2.195312 5.304688 2.195312 1.917968 0 3.835937-.730469 5.300781-2.195312l12.949219-12.949219 12.945312 12.949219c1.464844 1.460937 3.382813 2.195312 5.304688 2.195312 1.917968 0 3.835937-.730469 5.300781-2.195312 2.929687-2.929688 2.929687-7.679688 0-10.609376l-12.945313-12.945312 12.945313-12.945312c2.929687-2.929688 2.929687-7.679688 0-10.609376-2.929687-2.925781-7.675781-2.925781-10.605469 0l-12.945312 12.949219-12.945313-12.949219c-2.929687-2.925781-7.679687-2.925781-10.609375 0-2.929687 2.929688-2.929687 7.679688 0 10.609376l12.949219 12.945312-12.949219 12.945312c-2.929687 2.929688-2.929687 7.679688 0 10.609376zm0 0"/></g></svg>