<?xml version="1.0" encoding="iso-8859-1"?>
<!-- Generator: Adobe Illustrator 19.0.0, SVG Export Plug-In . SVG Version: 6.00 Build 0)  -->
<svg version="1.1" id="Capa_1" xmlns="http://www.w3.org/2000/svg" xmlns:xlink="http://www.w3.org/1999/xlink" x="0px" y="0px"
	 viewBox="0 0 512 512" style="enable-background:new 0 0 512 512;" xml:space="preserve">
<circle style="fill:#FAD79B;" cx="256.24" cy="219" r="130"/>
<g>
	<polygon style="fill:#FAC800;" points="24.01,433 84.035,370 148.062,433 	"/>
	<polygon style="fill:#FAC800;" points="378.159,433 438.184,370 502.211,433 	"/>
</g>
<path d="M509.079,425.725c-0.606-0.607-63.426-62.409-63.875-62.85c-3.678-3.618-10.308-3.925-14.265,0.228L373.872,423H152.16
	c0,0-61.056-60.076-61.107-60.127c-3.937-3.874-10.453-3.768-14.262,0.23L19.723,423c0,0-9.692,0-9.719,0c-12.392,0-13.022,20,0,20
	c0,0,490.708,0,492.204,0C510.59,443,515.455,432.098,509.079,425.725z M47.353,423l36.912-38.741L123.638,423H47.353z M401.502,423
	l36.912-38.741L477.787,423H401.502z"/>
<path d="M42.018,99.001h86.036c5.525,0,10.004-4.478,10.004-10s-4.479-10-10.004-10H42.018c-5.525,0-10.004,4.478-10.004,10
	C32.013,94.524,36.492,99.001,42.018,99.001z"/>
<path d="M10.004,139.001h50.021c5.512,0,10.004-4.49,10.004-10c0-5.51-4.492-10-10.004-10H10.004c-5.513,0-10.004,4.49-10.004,10
	C0,134.511,4.492,139.001,10.004,139.001z"/>
<path d="M110.046,129.001c0-5.51-4.492-10-10.004-10c-5.513,0-10.004,4.49-10.004,10c0,5.51,4.492,10,10.004,10
	S110.046,134.511,110.046,129.001z"/>
<path d="M10.004,219.001h54.023c5.525,0,10.004-4.478,10.004-10s-4.479-10-10.004-10H10.004c-5.525,0-10.004,4.478-10.004,10
	S4.479,219.001,10.004,219.001z"/>
<path d="M22.009,249.001c0,5.51,4.492,10,10.004,10s10.004-4.49,10.004-10s-4.492-10-10.004-10S22.009,243.491,22.009,249.001z"/>
<path d="M72.03,239.001c-5.513,0-10.004,4.49-10.004,10s4.492,10,10.004,10h24.01c5.512,0,10.004-4.49,10.004-10
	s-4.492-10-10.004-10H72.03z"/>
<path d="M10.004,339h42.018c5.525,0,10.004-4.478,10.004-10s-4.479-10-10.004-10H10.004C4.479,319,0,323.478,0,329
	C0,334.523,4.479,339,10.004,339z"/>
<path d="M116.049,219.001c0,54.11,30.872,101.144,75.933,124.44l-3.314,5.153c-2.988,4.645-1.642,10.832,3.005,13.819
	c4.494,2.889,10.849,1.624,13.825-3.005l5.137-7.987c14.265,4.908,29.562,7.58,45.473,7.58c8.843,0,17.493-0.833,25.886-2.407
	c0,0,9.065,12.32,9.073,12.332c3.232,4.392,9.595,5.36,13.986,2.131c4.451-3.271,5.406-9.531,2.132-13.98l-4.458-6.059
	c54.378-19.243,93.44-71.151,93.44-132.016h9.004c5.525,0,10.004-4.478,10.004-10s-4.479-10-10.004-10h-10.439
	c-2.669-18.57-8.996-35.972-18.228-51.455l10.81-24.511c2.228-5.054-0.063-10.957-5.119-13.185s-10.961,0.063-13.19,5.116
	l-6.024,13.658c-22.655-26.726-55.136-44.872-91.814-48.811c-0.076-0.008-0.151-0.016-0.227-0.022
	c-23.53-1.891-46.643,0.794-68.553,9.924l-1.369-11.861c-0.634-5.485-5.594-9.42-11.085-8.788
	c-5.489,0.634-9.424,5.595-8.791,11.081l2.223,19.258C143.032,124.008,116.049,168.413,116.049,219.001z M155.331,284.14
	c-11.371-17.517-18.294-38.169-19.17-60.351c8.981,4.629,20.267,12.561,24.556,24.537
	C164.353,258.478,162.519,270.492,155.331,284.14z M199.303,324.692c-8.622-4.649-16.615-10.318-23.813-16.85l26.198-5.981
	L199.303,324.692z M203.963,280.827l-27.868,6.362c6.336-14.324,8.034-27.768,5.069-40.188h26.703L203.963,280.827z M256.108,339
	c-8.415,0-16.63-0.874-24.561-2.529l22.473-14.291l13.445,16.28C263.725,338.812,259.938,339,256.108,339z M279.92,322.125
	l-16.097-19.491c-3.214-3.892-8.826-4.78-13.085-2.071l-30.846,19.616l2.68-25.659l49.721-35.5l10.656,21.93L279.92,322.125z
	 M278.321,189.05c1.066-2.506,2.373-3.309,3.511-3.764c12.816-5.125,18.411-13.262,20.848-19.185
	c0.921-2.24,1.522-4.461,1.901-6.618c4.279,1.675,8.617,3.235,12.945,4.536l3.187,45.333l-38.108,21.162
	C278.376,216.901,274.435,198.187,278.321,189.05z M299.334,330.94l2.943-40.002l43.053,8.258
	C332.808,313.101,317.084,324.068,299.334,330.94z M299.932,270.124l-10.084-20.753l36.36-20.191l20.809,49.974L299.932,270.124z
	 M364.81,269.839l-19.298-46.346l30.632-3.341C375.976,237.896,371.915,254.718,364.81,269.839z M362.395,163.263
	c5.988,11.363,10.208,23.794,12.285,36.931l-34.29,3.739l-2.53-35.989C346.271,168.465,354.906,167.309,362.395,163.263z
	 M351.513,146.253c-12.273,5.32-32.232-1.815-50.351-9.871l-14.421-33.411C312.869,109.872,335.539,125.371,351.513,146.253z
	 M256.108,99.001c2.424,0,4.832,0.072,7.221,0.215l10.666,24.712c-7.142-3.039-12.976-4.927-17.888-4.927
	c-14.941,0-35.677,3.411-48.665,5.866c-0.364-5.76-1.124-10.814-1.875-14.697C220.938,103.009,238.062,99.001,256.108,99.001z
	 M206.672,145.395c11.441-2.264,34.368-6.394,49.435-6.394c3.367,0.02,26.947,11.087,28.807,11.951
	c0.303,2.18,0.325,4.956-0.739,7.543c-1.409,3.426-4.697,6.191-9.773,8.221c-8.446,3.376-14.286,11.529-16.327,20.213
	c-13.939-2.989-39.246-8.518-61.832-13.475C202.184,164.627,205.271,154.833,206.672,145.395z M257.178,207.187
	c1.173,12.322,4.71,24.662,7.429,32.741l-38.997,27.843c0.614-5.318,5.505-31.979,1.149-37.181
	c-1.756-2.098-4.502-3.149-7.609-3.636c-5.503-0.862-47.417,0.327-47.633,0.046c-5.825-7.59-13.174-13.364-20.121-17.613
	c8.546-4.405,18.657-10.603,28.672-19.009C187.889,192.097,255.33,206.794,257.178,207.187z M187.021,120.918
	c1.606,13.245,1.33,33.669-12.018,47.011c-12.368,12.363-26.039,20.455-36.156,25.332
	C145.37,163.545,162.938,137.918,187.021,120.918z"/>
<g>
</g>
<g>
</g>
<g>
</g>
<g>
</g>
<g>
</g>
<g>
</g>
<g>
</g>
<g>
</g>
<g>
</g>
<g>
</g>
<g>
</g>
<g>
</g>
<g>
</g>
<g>
</g>
<g>
</g>
</svg>
